<mxfile host="app.diagrams.net" modified="2020-11-21T09:53:13.648Z" agent="5.0 (Windows)" etag="S3-QqmeR4DLNps595Qxb" version="13.10.0" type="github">
  <diagram id="kgpKYQtTHZ0yAKxKKP6v" name="Page-1">
    <mxGraphModel dx="782" dy="432" grid="1" gridSize="10" guides="1" tooltips="1" connect="1" arrows="1" fold="1" page="1" pageScale="1" pageWidth="850" pageHeight="1100" math="0" shadow="0">
      <root>
        <mxCell id="0" />
        <mxCell id="1" parent="0" />
        <mxCell id="tkM8fCFcSlWPYnc8_veN-153" value="" style="rounded=0;whiteSpace=wrap;html=1;" vertex="1" parent="1">
          <mxGeometry x="62.5" y="2360" width="507.5" height="390" as="geometry" />
        </mxCell>
        <mxCell id="tkM8fCFcSlWPYnc8_veN-154" value="" style="rounded=0;whiteSpace=wrap;html=1;" vertex="1" parent="1">
          <mxGeometry x="72.5" y="2490" width="497.5" height="150" as="geometry" />
        </mxCell>
        <mxCell id="tkM8fCFcSlWPYnc8_veN-155" value="" style="rounded=0;whiteSpace=wrap;html=1;" vertex="1" parent="1">
          <mxGeometry x="62.5" y="2170" width="507.5" height="80" as="geometry" />
        </mxCell>
        <mxCell id="tkM8fCFcSlWPYnc8_veN-156" value="" style="rounded=1;whiteSpace=wrap;html=1;shadow=0;glass=0;sketch=0;" vertex="1" parent="1">
          <mxGeometry x="270" y="2140" width="40" height="130" as="geometry" />
        </mxCell>
        <mxCell id="tkM8fCFcSlWPYnc8_veN-157" value="" style="rounded=0;whiteSpace=wrap;html=1;" vertex="1" parent="1">
          <mxGeometry x="62.5" y="1890" width="507.5" height="170" as="geometry" />
        </mxCell>
        <mxCell id="tkM8fCFcSlWPYnc8_veN-158" value="" style="rounded=1;whiteSpace=wrap;html=1;shadow=0;glass=0;sketch=0;" vertex="1" parent="1">
          <mxGeometry x="520" y="1880" width="30" height="200" as="geometry" />
        </mxCell>
        <mxCell id="tkM8fCFcSlWPYnc8_veN-159" value="" style="rounded=1;whiteSpace=wrap;html=1;shadow=0;glass=0;sketch=0;" vertex="1" parent="1">
          <mxGeometry x="270" y="1850" width="40" height="230" as="geometry" />
        </mxCell>
        <mxCell id="tkM8fCFcSlWPYnc8_veN-160" value="" style="rounded=0;whiteSpace=wrap;html=1;" vertex="1" parent="1">
          <mxGeometry x="57.5" y="1140" width="510" height="640" as="geometry" />
        </mxCell>
        <mxCell id="tkM8fCFcSlWPYnc8_veN-161" value="" style="rounded=1;whiteSpace=wrap;html=1;glass=0;shadow=0;sketch=0;imageVerticalAlign=bottom;" vertex="1" parent="1">
          <mxGeometry x="515" y="1120" width="40" height="690" as="geometry" />
        </mxCell>
        <mxCell id="tkM8fCFcSlWPYnc8_veN-162" value="" style="rounded=0;whiteSpace=wrap;html=1;" vertex="1" parent="1">
          <mxGeometry x="70" y="1220" width="480" height="390" as="geometry" />
        </mxCell>
        <mxCell id="tkM8fCFcSlWPYnc8_veN-163" value="" style="rounded=1;whiteSpace=wrap;html=1;" vertex="1" parent="1">
          <mxGeometry x="270" y="1080" width="40" height="730" as="geometry" />
        </mxCell>
        <mxCell id="tkM8fCFcSlWPYnc8_veN-164" value="Alternative" style="rounded=0;whiteSpace=wrap;html=1;" vertex="1" parent="1">
          <mxGeometry x="70" y="1220" width="60" height="30" as="geometry" />
        </mxCell>
        <mxCell id="tkM8fCFcSlWPYnc8_veN-165" value="" style="rounded=0;whiteSpace=wrap;html=1;" vertex="1" parent="1">
          <mxGeometry x="52.5" y="210" width="400" height="240" as="geometry" />
        </mxCell>
        <mxCell id="tkM8fCFcSlWPYnc8_veN-166" value="" style="rounded=0;whiteSpace=wrap;html=1;" vertex="1" parent="1">
          <mxGeometry x="60" y="760" width="400" height="240" as="geometry" />
        </mxCell>
        <mxCell id="tkM8fCFcSlWPYnc8_veN-167" value="" style="rounded=0;whiteSpace=wrap;html=1;" vertex="1" parent="1">
          <mxGeometry x="57.5" y="480" width="400" height="240" as="geometry" />
        </mxCell>
        <mxCell id="tkM8fCFcSlWPYnc8_veN-168" value="" style="rounded=1;whiteSpace=wrap;html=1;" vertex="1" parent="1">
          <mxGeometry x="395" y="190" width="40" height="830" as="geometry" />
        </mxCell>
        <mxCell id="tkM8fCFcSlWPYnc8_veN-169" value="" style="rounded=1;whiteSpace=wrap;html=1;" vertex="1" parent="1">
          <mxGeometry x="270" y="150" width="40" height="870" as="geometry" />
        </mxCell>
        <mxCell id="tkM8fCFcSlWPYnc8_veN-170" value="Alternative" style="rounded=0;whiteSpace=wrap;html=1;" vertex="1" parent="1">
          <mxGeometry x="52.5" y="210" width="60" height="30" as="geometry" />
        </mxCell>
        <mxCell id="tkM8fCFcSlWPYnc8_veN-171" value="" style="endArrow=none;dashed=1;html=1;entryX=0;entryY=0.5;entryDx=0;entryDy=0;exitX=1;exitY=0.5;exitDx=0;exitDy=0;" edge="1" parent="1" source="tkM8fCFcSlWPYnc8_veN-165" target="tkM8fCFcSlWPYnc8_veN-165">
          <mxGeometry width="50" height="50" relative="1" as="geometry">
            <mxPoint x="22.5" y="440" as="sourcePoint" />
            <mxPoint x="72.5" y="390" as="targetPoint" />
          </mxGeometry>
        </mxCell>
        <mxCell id="tkM8fCFcSlWPYnc8_veN-172" value="" style="endArrow=classic;html=1;" edge="1" parent="1">
          <mxGeometry width="50" height="50" relative="1" as="geometry">
            <mxPoint x="292.5" y="230" as="sourcePoint" />
            <mxPoint x="410" y="230" as="targetPoint" />
          </mxGeometry>
        </mxCell>
        <mxCell id="tkM8fCFcSlWPYnc8_veN-173" value="&lt;font style=&quot;font-size: 8px&quot;&gt;insert credentials&lt;br&gt;&lt;/font&gt;" style="text;html=1;align=center;verticalAlign=middle;resizable=0;points=[];autosize=1;" vertex="1" parent="1">
          <mxGeometry x="302.5" y="210" width="80" height="20" as="geometry" />
        </mxCell>
        <mxCell id="tkM8fCFcSlWPYnc8_veN-174" value="" style="html=1;labelBackgroundColor=#ffffff;startArrow=none;startFill=0;startSize=6;endArrow=classic;endFill=1;endSize=6;jettySize=auto;orthogonalLoop=1;strokeWidth=1;dashed=1;fontSize=14;" edge="1" parent="1">
          <mxGeometry width="60" height="60" relative="1" as="geometry">
            <mxPoint x="412.5" y="270" as="sourcePoint" />
            <mxPoint x="292.5" y="270" as="targetPoint" />
          </mxGeometry>
        </mxCell>
        <mxCell id="tkM8fCFcSlWPYnc8_veN-175" value="&lt;font style=&quot;font-size: 8px&quot;&gt;account is verified&lt;br&gt;&lt;/font&gt;" style="text;html=1;align=center;verticalAlign=middle;resizable=0;points=[];autosize=1;" vertex="1" parent="1">
          <mxGeometry x="312.5" y="240" width="80" height="20" as="geometry" />
        </mxCell>
        <mxCell id="tkM8fCFcSlWPYnc8_veN-176" value="" style="endArrow=classic;html=1;" edge="1" parent="1">
          <mxGeometry width="50" height="50" relative="1" as="geometry">
            <mxPoint x="290" y="300" as="sourcePoint" />
            <mxPoint x="172.5" y="300" as="targetPoint" />
          </mxGeometry>
        </mxCell>
        <mxCell id="tkM8fCFcSlWPYnc8_veN-177" value="&lt;div&gt;&lt;font style=&quot;font-size: 8px&quot;&gt;Display options&lt;/font&gt;&lt;/div&gt;&lt;div&gt;&lt;font style=&quot;font-size: 8px&quot;&gt;to user&lt;br&gt;&lt;/font&gt;&lt;/div&gt;" style="text;html=1;align=center;verticalAlign=middle;resizable=0;points=[];autosize=1;" vertex="1" parent="1">
          <mxGeometry x="197.5" y="255" width="70" height="40" as="geometry" />
        </mxCell>
        <mxCell id="tkM8fCFcSlWPYnc8_veN-178" value="&lt;font style=&quot;font-size: 10px&quot;&gt;[User creates account]&lt;/font&gt;" style="text;html=1;align=center;verticalAlign=middle;resizable=0;points=[];autosize=1;" vertex="1" parent="1">
          <mxGeometry x="60" y="240" width="110" height="20" as="geometry" />
        </mxCell>
        <mxCell id="tkM8fCFcSlWPYnc8_veN-179" value="&lt;div&gt;&lt;font style=&quot;font-size: 10px&quot;&gt;[account already exists]&lt;/font&gt;&lt;/div&gt;&lt;div&gt;&lt;font style=&quot;font-size: 10px&quot;&gt;[or existing credentials]&lt;/font&gt;&lt;br&gt;&lt;/div&gt;" style="text;html=1;align=center;verticalAlign=middle;resizable=0;points=[];autosize=1;" vertex="1" parent="1">
          <mxGeometry x="47.5" y="340" width="120" height="30" as="geometry" />
        </mxCell>
        <mxCell id="tkM8fCFcSlWPYnc8_veN-180" value="" style="endArrow=classic;html=1;" edge="1" parent="1">
          <mxGeometry width="50" height="50" relative="1" as="geometry">
            <mxPoint x="292.5" y="350" as="sourcePoint" />
            <mxPoint x="410" y="350" as="targetPoint" />
          </mxGeometry>
        </mxCell>
        <mxCell id="tkM8fCFcSlWPYnc8_veN-181" value="&lt;font style=&quot;font-size: 8px&quot;&gt;insert credentials&lt;br&gt;&lt;/font&gt;" style="text;html=1;align=center;verticalAlign=middle;resizable=0;points=[];autosize=1;" vertex="1" parent="1">
          <mxGeometry x="302.5" y="330" width="80" height="20" as="geometry" />
        </mxCell>
        <mxCell id="tkM8fCFcSlWPYnc8_veN-182" value="" style="html=1;labelBackgroundColor=#ffffff;startArrow=none;startFill=0;startSize=6;endArrow=classic;endFill=1;endSize=6;jettySize=auto;orthogonalLoop=1;strokeWidth=1;dashed=1;fontSize=14;" edge="1" parent="1">
          <mxGeometry width="60" height="60" relative="1" as="geometry">
            <mxPoint x="412.5" y="390" as="sourcePoint" />
            <mxPoint x="292.5" y="390" as="targetPoint" />
          </mxGeometry>
        </mxCell>
        <mxCell id="tkM8fCFcSlWPYnc8_veN-183" value="&lt;div&gt;&lt;font style=&quot;font-size: 8px&quot;&gt;Credentials invalid&lt;/font&gt;&lt;/div&gt;&lt;font style=&quot;font-size: 8px&quot;&gt;&lt;/font&gt;" style="text;html=1;align=center;verticalAlign=middle;resizable=0;points=[];autosize=1;" vertex="1" parent="1">
          <mxGeometry x="312.5" y="360" width="80" height="20" as="geometry" />
        </mxCell>
        <mxCell id="tkM8fCFcSlWPYnc8_veN-184" value="&lt;div&gt;&lt;font style=&quot;font-size: 8px&quot;&gt;prompt&lt;/font&gt; &lt;font style=&quot;font-size: 8px&quot;&gt;to either re-try&lt;/font&gt;&lt;/div&gt;&lt;div&gt;&lt;font style=&quot;font-size: 8px&quot;&gt;or login as guest&lt;/font&gt;&lt;br&gt;&lt;/div&gt;" style="text;html=1;align=center;verticalAlign=middle;resizable=0;points=[];autosize=1;" vertex="1" parent="1">
          <mxGeometry x="187.5" y="380" width="90" height="40" as="geometry" />
        </mxCell>
        <mxCell id="tkM8fCFcSlWPYnc8_veN-185" value="Alternative" style="rounded=0;whiteSpace=wrap;html=1;" vertex="1" parent="1">
          <mxGeometry x="60" y="760" width="60" height="30" as="geometry" />
        </mxCell>
        <mxCell id="tkM8fCFcSlWPYnc8_veN-186" value="" style="endArrow=none;dashed=1;html=1;entryX=0;entryY=0.5;entryDx=0;entryDy=0;exitX=1;exitY=0.5;exitDx=0;exitDy=0;" edge="1" parent="1" source="tkM8fCFcSlWPYnc8_veN-166" target="tkM8fCFcSlWPYnc8_veN-166">
          <mxGeometry width="50" height="50" relative="1" as="geometry">
            <mxPoint x="30" y="990" as="sourcePoint" />
            <mxPoint x="80" y="940" as="targetPoint" />
          </mxGeometry>
        </mxCell>
        <mxCell id="tkM8fCFcSlWPYnc8_veN-187" value="" style="endArrow=classic;html=1;" edge="1" parent="1">
          <mxGeometry width="50" height="50" relative="1" as="geometry">
            <mxPoint x="290" y="780" as="sourcePoint" />
            <mxPoint x="410" y="780" as="targetPoint" />
          </mxGeometry>
        </mxCell>
        <mxCell id="tkM8fCFcSlWPYnc8_veN-188" value="&lt;font style=&quot;font-size: 8px&quot;&gt;insert credentials&lt;br&gt;&lt;/font&gt;" style="text;html=1;align=center;verticalAlign=middle;resizable=0;points=[];autosize=1;" vertex="1" parent="1">
          <mxGeometry x="310" y="760" width="80" height="20" as="geometry" />
        </mxCell>
        <mxCell id="tkM8fCFcSlWPYnc8_veN-189" value="" style="html=1;labelBackgroundColor=#ffffff;startArrow=none;startFill=0;startSize=6;endArrow=classic;endFill=1;endSize=6;jettySize=auto;orthogonalLoop=1;strokeWidth=1;dashed=1;fontSize=14;" edge="1" parent="1">
          <mxGeometry width="60" height="60" relative="1" as="geometry">
            <mxPoint x="410" y="820" as="sourcePoint" />
            <mxPoint x="300" y="820" as="targetPoint" />
          </mxGeometry>
        </mxCell>
        <mxCell id="tkM8fCFcSlWPYnc8_veN-190" value="&lt;font style=&quot;font-size: 8px&quot;&gt;username assigned&lt;br&gt;&lt;/font&gt;" style="text;html=1;align=center;verticalAlign=middle;resizable=0;points=[];autosize=1;" vertex="1" parent="1">
          <mxGeometry x="315" y="790" width="90" height="20" as="geometry" />
        </mxCell>
        <mxCell id="tkM8fCFcSlWPYnc8_veN-191" value="" style="endArrow=classic;html=1;" edge="1" parent="1">
          <mxGeometry width="50" height="50" relative="1" as="geometry">
            <mxPoint x="290" y="850" as="sourcePoint" />
            <mxPoint x="180" y="850" as="targetPoint" />
          </mxGeometry>
        </mxCell>
        <mxCell id="tkM8fCFcSlWPYnc8_veN-192" value="&lt;div&gt;&lt;font style=&quot;font-size: 8px&quot;&gt;Display options&lt;/font&gt;&lt;/div&gt;&lt;div&gt;&lt;font style=&quot;font-size: 8px&quot;&gt;to user&lt;br&gt;&lt;/font&gt;&lt;/div&gt;" style="text;html=1;align=center;verticalAlign=middle;resizable=0;points=[];autosize=1;" vertex="1" parent="1">
          <mxGeometry x="205" y="805" width="70" height="40" as="geometry" />
        </mxCell>
        <mxCell id="tkM8fCFcSlWPYnc8_veN-193" value="&lt;font style=&quot;font-size: 10px&quot;&gt;[If user selects guest]&lt;/font&gt;" style="text;html=1;align=center;verticalAlign=middle;resizable=0;points=[];autosize=1;" vertex="1" parent="1">
          <mxGeometry x="55" y="790" width="110" height="20" as="geometry" />
        </mxCell>
        <mxCell id="tkM8fCFcSlWPYnc8_veN-194" value="&lt;div&gt;&lt;font style=&quot;font-size: 10px&quot;&gt;[If username &lt;br&gt;&lt;/font&gt;&lt;/div&gt;&lt;div&gt;&lt;font style=&quot;font-size: 10px&quot;&gt;already exists]&lt;/font&gt;&lt;/div&gt;" style="text;html=1;align=center;verticalAlign=middle;resizable=0;points=[];autosize=1;" vertex="1" parent="1">
          <mxGeometry x="67.5" y="890" width="80" height="30" as="geometry" />
        </mxCell>
        <mxCell id="tkM8fCFcSlWPYnc8_veN-195" value="" style="endArrow=classic;html=1;" edge="1" parent="1">
          <mxGeometry width="50" height="50" relative="1" as="geometry">
            <mxPoint x="290" y="900" as="sourcePoint" />
            <mxPoint x="410" y="900" as="targetPoint" />
          </mxGeometry>
        </mxCell>
        <mxCell id="tkM8fCFcSlWPYnc8_veN-196" value="&lt;font style=&quot;font-size: 8px&quot;&gt;insert credentials&lt;br&gt;&lt;/font&gt;" style="text;html=1;align=center;verticalAlign=middle;resizable=0;points=[];autosize=1;" vertex="1" parent="1">
          <mxGeometry x="310" y="880" width="80" height="20" as="geometry" />
        </mxCell>
        <mxCell id="tkM8fCFcSlWPYnc8_veN-197" value="" style="html=1;labelBackgroundColor=#ffffff;startArrow=none;startFill=0;startSize=6;endArrow=classic;endFill=1;endSize=6;jettySize=auto;orthogonalLoop=1;strokeWidth=1;dashed=1;fontSize=14;" edge="1" parent="1">
          <mxGeometry width="60" height="60" relative="1" as="geometry">
            <mxPoint x="410" y="940" as="sourcePoint" />
            <mxPoint x="300" y="940" as="targetPoint" />
            <Array as="points">
              <mxPoint x="350" y="940" />
            </Array>
          </mxGeometry>
        </mxCell>
        <mxCell id="tkM8fCFcSlWPYnc8_veN-198" value="&lt;font style=&quot;font-size: 8px&quot;&gt;Credentials already exist&lt;br&gt;&lt;/font&gt;" style="text;html=1;align=center;verticalAlign=middle;resizable=0;points=[];autosize=1;" vertex="1" parent="1">
          <mxGeometry x="305" y="910" width="110" height="20" as="geometry" />
        </mxCell>
        <mxCell id="tkM8fCFcSlWPYnc8_veN-199" value="" style="endArrow=classic;html=1;" edge="1" parent="1">
          <mxGeometry width="50" height="50" relative="1" as="geometry">
            <mxPoint x="290" y="975" as="sourcePoint" />
            <mxPoint x="180" y="975" as="targetPoint" />
          </mxGeometry>
        </mxCell>
        <mxCell id="tkM8fCFcSlWPYnc8_veN-200" value="&lt;div&gt;&lt;font style=&quot;font-size: 8px&quot;&gt;prompt&lt;/font&gt; &lt;font style=&quot;font-size: 8px&quot;&gt;to pick another name&lt;br&gt;&lt;/font&gt;&lt;/div&gt;&lt;div&gt;&lt;font style=&quot;font-size: 8px&quot;&gt;or create account&lt;/font&gt;&lt;br&gt;&lt;/div&gt;" style="text;html=1;align=center;verticalAlign=middle;resizable=0;points=[];autosize=1;" vertex="1" parent="1">
          <mxGeometry x="167.5" y="920" width="120" height="40" as="geometry" />
        </mxCell>
        <mxCell id="tkM8fCFcSlWPYnc8_veN-201" value="User" style="shape=umlActor;verticalLabelPosition=bottom;verticalAlign=top;html=1;outlineConnect=0;" vertex="1" parent="1">
          <mxGeometry x="160" y="60" width="30" height="60" as="geometry" />
        </mxCell>
        <mxCell id="tkM8fCFcSlWPYnc8_veN-202" value="home page" style="rounded=0;whiteSpace=wrap;html=1;" vertex="1" parent="1">
          <mxGeometry x="250" y="70" width="90" height="40" as="geometry" />
        </mxCell>
        <mxCell id="tkM8fCFcSlWPYnc8_veN-203" value="validating user" style="rounded=0;whiteSpace=wrap;html=1;" vertex="1" parent="1">
          <mxGeometry x="370" y="70" width="90" height="40" as="geometry" />
        </mxCell>
        <mxCell id="tkM8fCFcSlWPYnc8_veN-204" value="animal database" style="rounded=0;whiteSpace=wrap;html=1;" vertex="1" parent="1">
          <mxGeometry x="490" y="70" width="90" height="40" as="geometry" />
        </mxCell>
        <mxCell id="tkM8fCFcSlWPYnc8_veN-205" value="&lt;div&gt;&lt;b&gt;UML SEQUENCE&lt;/b&gt;&lt;/div&gt;&lt;div&gt;&lt;b&gt;DIAGRAM&lt;br&gt;&lt;/b&gt;&lt;/div&gt;" style="text;html=1;align=center;verticalAlign=middle;resizable=0;points=[];autosize=1;" vertex="1" parent="1">
          <mxGeometry x="20" y="50" width="110" height="30" as="geometry" />
        </mxCell>
        <mxCell id="tkM8fCFcSlWPYnc8_veN-206" value="" style="endArrow=none;dashed=1;html=1;" edge="1" parent="1">
          <mxGeometry width="50" height="50" relative="1" as="geometry">
            <mxPoint x="170" y="2750" as="sourcePoint" />
            <mxPoint x="170" y="140" as="targetPoint" />
          </mxGeometry>
        </mxCell>
        <mxCell id="tkM8fCFcSlWPYnc8_veN-207" value="" style="endArrow=none;dashed=1;html=1;" edge="1" parent="1">
          <mxGeometry width="50" height="50" relative="1" as="geometry">
            <mxPoint x="414.5" y="120" as="sourcePoint" />
            <mxPoint x="410" y="2750" as="targetPoint" />
          </mxGeometry>
        </mxCell>
        <mxCell id="tkM8fCFcSlWPYnc8_veN-208" value="" style="endArrow=classic;html=1;" edge="1" parent="1">
          <mxGeometry width="50" height="50" relative="1" as="geometry">
            <mxPoint x="170" y="170" as="sourcePoint" />
            <mxPoint x="290" y="170" as="targetPoint" />
          </mxGeometry>
        </mxCell>
        <mxCell id="tkM8fCFcSlWPYnc8_veN-209" value="&lt;div&gt;&lt;font style=&quot;font-size: 10px&quot;&gt;select login&lt;/font&gt;&lt;/div&gt;&lt;div&gt;&lt;font style=&quot;font-size: 10px&quot;&gt;as guest or user&lt;br&gt;&lt;/font&gt;&lt;/div&gt;" style="text;html=1;align=center;verticalAlign=middle;resizable=0;points=[];autosize=1;" vertex="1" parent="1">
          <mxGeometry x="180" y="135" width="90" height="30" as="geometry" />
        </mxCell>
        <mxCell id="tkM8fCFcSlWPYnc8_veN-210" value="Alternative" style="rounded=0;whiteSpace=wrap;html=1;" vertex="1" parent="1">
          <mxGeometry x="57.5" y="480" width="60" height="30" as="geometry" />
        </mxCell>
        <mxCell id="tkM8fCFcSlWPYnc8_veN-211" value="" style="endArrow=none;dashed=1;html=1;entryX=0;entryY=0.5;entryDx=0;entryDy=0;exitX=1;exitY=0.5;exitDx=0;exitDy=0;" edge="1" parent="1" source="tkM8fCFcSlWPYnc8_veN-167" target="tkM8fCFcSlWPYnc8_veN-167">
          <mxGeometry width="50" height="50" relative="1" as="geometry">
            <mxPoint x="27.5" y="710" as="sourcePoint" />
            <mxPoint x="77.5" y="660" as="targetPoint" />
          </mxGeometry>
        </mxCell>
        <mxCell id="tkM8fCFcSlWPYnc8_veN-212" value="" style="endArrow=classic;html=1;" edge="1" parent="1">
          <mxGeometry width="50" height="50" relative="1" as="geometry">
            <mxPoint x="285" y="500" as="sourcePoint" />
            <mxPoint x="415" y="500" as="targetPoint" />
          </mxGeometry>
        </mxCell>
        <mxCell id="tkM8fCFcSlWPYnc8_veN-213" value="&lt;font style=&quot;font-size: 8px&quot;&gt;insert credentials&lt;br&gt;&lt;/font&gt;" style="text;html=1;align=center;verticalAlign=middle;resizable=0;points=[];autosize=1;" vertex="1" parent="1">
          <mxGeometry x="295" y="480" width="80" height="20" as="geometry" />
        </mxCell>
        <mxCell id="tkM8fCFcSlWPYnc8_veN-214" value="" style="html=1;labelBackgroundColor=#ffffff;startArrow=none;startFill=0;startSize=6;endArrow=classic;endFill=1;endSize=6;jettySize=auto;orthogonalLoop=1;strokeWidth=1;dashed=1;fontSize=14;" edge="1" parent="1">
          <mxGeometry width="60" height="60" relative="1" as="geometry">
            <mxPoint x="405" y="540" as="sourcePoint" />
            <mxPoint x="285" y="540" as="targetPoint" />
          </mxGeometry>
        </mxCell>
        <mxCell id="tkM8fCFcSlWPYnc8_veN-215" value="&lt;font style=&quot;font-size: 8px&quot;&gt;account is verified&lt;br&gt;&lt;/font&gt;" style="text;html=1;align=center;verticalAlign=middle;resizable=0;points=[];autosize=1;" vertex="1" parent="1">
          <mxGeometry x="305" y="510" width="80" height="20" as="geometry" />
        </mxCell>
        <mxCell id="tkM8fCFcSlWPYnc8_veN-216" value="" style="endArrow=classic;html=1;" edge="1" parent="1">
          <mxGeometry width="50" height="50" relative="1" as="geometry">
            <mxPoint x="285" y="570" as="sourcePoint" />
            <mxPoint x="165" y="570" as="targetPoint" />
          </mxGeometry>
        </mxCell>
        <mxCell id="tkM8fCFcSlWPYnc8_veN-217" value="&lt;div&gt;&lt;font style=&quot;font-size: 8px&quot;&gt;Display options&lt;/font&gt;&lt;/div&gt;&lt;div&gt;&lt;font style=&quot;font-size: 8px&quot;&gt;to user&lt;br&gt;&lt;/font&gt;&lt;/div&gt;" style="text;html=1;align=center;verticalAlign=middle;resizable=0;points=[];autosize=1;" vertex="1" parent="1">
          <mxGeometry x="190" y="525" width="70" height="40" as="geometry" />
        </mxCell>
        <mxCell id="tkM8fCFcSlWPYnc8_veN-218" value="&lt;font style=&quot;font-size: 10px&quot;&gt;[If user account exists]&lt;/font&gt;" style="text;html=1;align=center;verticalAlign=middle;resizable=0;points=[];autosize=1;" vertex="1" parent="1">
          <mxGeometry x="52.5" y="510" width="110" height="20" as="geometry" />
        </mxCell>
        <mxCell id="tkM8fCFcSlWPYnc8_veN-219" value="&lt;font style=&quot;font-size: 10px&quot;&gt;[If user account exists]&lt;/font&gt;" style="text;html=1;align=center;verticalAlign=middle;resizable=0;points=[];autosize=1;" vertex="1" parent="1">
          <mxGeometry x="52.5" y="510" width="110" height="20" as="geometry" />
        </mxCell>
        <mxCell id="tkM8fCFcSlWPYnc8_veN-220" value="&lt;font style=&quot;font-size: 10px&quot;&gt;[If failed to validate]&lt;/font&gt;" style="text;html=1;align=center;verticalAlign=middle;resizable=0;points=[];autosize=1;" vertex="1" parent="1">
          <mxGeometry x="57.5" y="600" width="100" height="20" as="geometry" />
        </mxCell>
        <mxCell id="tkM8fCFcSlWPYnc8_veN-221" value="" style="endArrow=classic;html=1;" edge="1" parent="1">
          <mxGeometry width="50" height="50" relative="1" as="geometry">
            <mxPoint x="297.5" y="620" as="sourcePoint" />
            <mxPoint x="410" y="620" as="targetPoint" />
          </mxGeometry>
        </mxCell>
        <mxCell id="tkM8fCFcSlWPYnc8_veN-222" value="&lt;font style=&quot;font-size: 8px&quot;&gt;insert credentials&lt;br&gt;&lt;/font&gt;" style="text;html=1;align=center;verticalAlign=middle;resizable=0;points=[];autosize=1;" vertex="1" parent="1">
          <mxGeometry x="307.5" y="600" width="80" height="20" as="geometry" />
        </mxCell>
        <mxCell id="tkM8fCFcSlWPYnc8_veN-223" value="" style="html=1;labelBackgroundColor=#ffffff;startArrow=none;startFill=0;startSize=6;endArrow=classic;endFill=1;endSize=6;jettySize=auto;orthogonalLoop=1;strokeWidth=1;dashed=1;fontSize=14;" edge="1" parent="1">
          <mxGeometry width="60" height="60" relative="1" as="geometry">
            <mxPoint x="410" y="660" as="sourcePoint" />
            <mxPoint x="297.5" y="660" as="targetPoint" />
          </mxGeometry>
        </mxCell>
        <mxCell id="tkM8fCFcSlWPYnc8_veN-224" value="&lt;div&gt;&lt;font style=&quot;font-size: 8px&quot;&gt;Credentials invalid&lt;/font&gt;&lt;/div&gt;&lt;font style=&quot;font-size: 8px&quot;&gt;&lt;/font&gt;" style="text;html=1;align=center;verticalAlign=middle;resizable=0;points=[];autosize=1;" vertex="1" parent="1">
          <mxGeometry x="317.5" y="630" width="80" height="20" as="geometry" />
        </mxCell>
        <mxCell id="tkM8fCFcSlWPYnc8_veN-225" value="" style="endArrow=classic;html=1;exitX=1.064;exitY=1.136;exitDx=0;exitDy=0;exitPerimeter=0;" edge="1" parent="1" source="tkM8fCFcSlWPYnc8_veN-226">
          <mxGeometry width="50" height="50" relative="1" as="geometry">
            <mxPoint x="297.5" y="695" as="sourcePoint" />
            <mxPoint x="177.5" y="695" as="targetPoint" />
          </mxGeometry>
        </mxCell>
        <mxCell id="tkM8fCFcSlWPYnc8_veN-226" value="&lt;div&gt;&lt;font style=&quot;font-size: 8px&quot;&gt;prompt&lt;/font&gt; &lt;font style=&quot;font-size: 8px&quot;&gt;to either re-try&lt;/font&gt;&lt;/div&gt;&lt;div&gt;&lt;font style=&quot;font-size: 8px&quot;&gt;or login as guest&lt;/font&gt;&lt;br&gt;&lt;/div&gt;" style="text;html=1;align=center;verticalAlign=middle;resizable=0;points=[];autosize=1;" vertex="1" parent="1">
          <mxGeometry x="192.5" y="650" width="90" height="40" as="geometry" />
        </mxCell>
        <mxCell id="tkM8fCFcSlWPYnc8_veN-227" value="" style="endArrow=classic;html=1;" edge="1" parent="1">
          <mxGeometry width="50" height="50" relative="1" as="geometry">
            <mxPoint x="290" y="430" as="sourcePoint" />
            <mxPoint x="180" y="430" as="targetPoint" />
          </mxGeometry>
        </mxCell>
        <mxCell id="tkM8fCFcSlWPYnc8_veN-228" value="Alternative" style="rounded=0;whiteSpace=wrap;html=1;" vertex="1" parent="1">
          <mxGeometry x="57.5" y="1140" width="60" height="30" as="geometry" />
        </mxCell>
        <mxCell id="tkM8fCFcSlWPYnc8_veN-229" value="[If user is logged in]" style="text;html=1;align=center;verticalAlign=middle;resizable=0;points=[];autosize=1;" vertex="1" parent="1">
          <mxGeometry x="52.5" y="1180" width="120" height="20" as="geometry" />
        </mxCell>
        <mxCell id="tkM8fCFcSlWPYnc8_veN-230" value="" style="endArrow=classic;html=1;" edge="1" parent="1">
          <mxGeometry width="50" height="50" relative="1" as="geometry">
            <mxPoint x="170" y="1090" as="sourcePoint" />
            <mxPoint x="290" y="1090" as="targetPoint" />
          </mxGeometry>
        </mxCell>
        <mxCell id="tkM8fCFcSlWPYnc8_veN-231" value="&lt;font style=&quot;font-size: 11px&quot;&gt;user selects option(s)&lt;/font&gt;" style="text;html=1;align=center;verticalAlign=middle;resizable=0;points=[];autosize=1;" vertex="1" parent="1">
          <mxGeometry x="167.5" y="1060" width="120" height="20" as="geometry" />
        </mxCell>
        <mxCell id="tkM8fCFcSlWPYnc8_veN-232" value="" style="endArrow=none;dashed=1;html=1;exitX=0;exitY=0.75;exitDx=0;exitDy=0;entryX=1;entryY=0.75;entryDx=0;entryDy=0;" edge="1" parent="1" source="tkM8fCFcSlWPYnc8_veN-160" target="tkM8fCFcSlWPYnc8_veN-160">
          <mxGeometry width="50" height="50" relative="1" as="geometry">
            <mxPoint x="640" y="1590" as="sourcePoint" />
            <mxPoint x="690" y="1540" as="targetPoint" />
          </mxGeometry>
        </mxCell>
        <mxCell id="tkM8fCFcSlWPYnc8_veN-233" value="[If Guest]" style="text;html=1;align=center;verticalAlign=middle;resizable=0;points=[];autosize=1;" vertex="1" parent="1">
          <mxGeometry x="67.5" y="1630" width="60" height="20" as="geometry" />
        </mxCell>
        <mxCell id="tkM8fCFcSlWPYnc8_veN-234" value="&lt;font style=&quot;font-size: 8px&quot;&gt;[If user searches animal]&lt;/font&gt;" style="text;html=1;align=center;verticalAlign=middle;resizable=0;points=[];autosize=1;" vertex="1" parent="1">
          <mxGeometry x="62.5" y="1260" width="110" height="20" as="geometry" />
        </mxCell>
        <mxCell id="tkM8fCFcSlWPYnc8_veN-235" value="" style="endArrow=none;dashed=1;html=1;exitX=0.006;exitY=0.205;exitDx=0;exitDy=0;exitPerimeter=0;" edge="1" parent="1" source="tkM8fCFcSlWPYnc8_veN-162">
          <mxGeometry width="50" height="50" relative="1" as="geometry">
            <mxPoint x="600" y="1340" as="sourcePoint" />
            <mxPoint x="550" y="1300" as="targetPoint" />
          </mxGeometry>
        </mxCell>
        <mxCell id="tkM8fCFcSlWPYnc8_veN-236" value="" style="endArrow=classic;html=1;" edge="1" parent="1">
          <mxGeometry width="50" height="50" relative="1" as="geometry">
            <mxPoint x="290" y="1240" as="sourcePoint" />
            <mxPoint x="530" y="1240" as="targetPoint" />
          </mxGeometry>
        </mxCell>
        <mxCell id="tkM8fCFcSlWPYnc8_veN-237" value="&lt;font style=&quot;font-size: 8px&quot;&gt;Search database for animal&lt;/font&gt;" style="text;html=1;align=center;verticalAlign=middle;resizable=0;points=[];autosize=1;" vertex="1" parent="1">
          <mxGeometry x="340" y="1220" width="120" height="20" as="geometry" />
        </mxCell>
        <mxCell id="tkM8fCFcSlWPYnc8_veN-238" value="&lt;div&gt;&lt;font style=&quot;font-size: 8px&quot;&gt;Refer to Search for &lt;br&gt;&lt;/font&gt;&lt;/div&gt;&lt;div&gt;&lt;font style=&quot;font-size: 8px&quot;&gt;and interact &lt;br&gt;&lt;/font&gt;&lt;/div&gt;&lt;div&gt;&lt;font style=&quot;font-size: 8px&quot;&gt;with other animal(s)&lt;/font&gt;&lt;/div&gt;" style="text;html=1;align=center;verticalAlign=middle;resizable=0;points=[];autosize=1;" vertex="1" parent="1">
          <mxGeometry x="430" y="1240" width="90" height="50" as="geometry" />
        </mxCell>
        <mxCell id="tkM8fCFcSlWPYnc8_veN-239" value="&lt;font style=&quot;font-size: 10px&quot;&gt;[If share animal]&lt;/font&gt;" style="text;html=1;align=center;verticalAlign=middle;resizable=0;points=[];autosize=1;" vertex="1" parent="1">
          <mxGeometry x="75" y="1420" width="80" height="20" as="geometry" />
        </mxCell>
        <mxCell id="tkM8fCFcSlWPYnc8_veN-240" value="" style="endArrow=classic;html=1;" edge="1" parent="1">
          <mxGeometry width="50" height="50" relative="1" as="geometry">
            <mxPoint x="290" y="1480" as="sourcePoint" />
            <mxPoint x="530" y="1480" as="targetPoint" />
          </mxGeometry>
        </mxCell>
        <mxCell id="tkM8fCFcSlWPYnc8_veN-241" value="&lt;div&gt;&lt;font style=&quot;font-size: 8px&quot;&gt;Grant temporary public &lt;br&gt;&lt;/font&gt;&lt;/div&gt;&lt;div&gt;&lt;font style=&quot;font-size: 8px&quot;&gt;access to view&lt;/font&gt;&lt;/div&gt;&lt;div&gt;&lt;font style=&quot;font-size: 8px&quot;&gt;and interact with &lt;/font&gt;&lt;br&gt;&lt;/div&gt;&lt;div&gt;&lt;font style=&quot;font-size: 8px&quot;&gt;created animal&lt;/font&gt;&lt;br&gt;&lt;/div&gt;" style="text;html=1;align=center;verticalAlign=middle;resizable=0;points=[];autosize=1;" vertex="1" parent="1">
          <mxGeometry x="295" y="1415" width="100" height="70" as="geometry" />
        </mxCell>
        <mxCell id="tkM8fCFcSlWPYnc8_veN-242" value="" style="endArrow=none;dashed=1;html=1;exitX=0.006;exitY=0.205;exitDx=0;exitDy=0;exitPerimeter=0;" edge="1" parent="1">
          <mxGeometry width="50" height="50" relative="1" as="geometry">
            <mxPoint x="71.44000000000005" y="1414.5" as="sourcePoint" />
            <mxPoint x="530" y="1415" as="targetPoint" />
          </mxGeometry>
        </mxCell>
        <mxCell id="tkM8fCFcSlWPYnc8_veN-243" value="&lt;font style=&quot;font-size: 10px&quot;&gt;[If create animal(s)]&lt;/font&gt;" style="text;html=1;align=center;verticalAlign=middle;resizable=0;points=[];autosize=1;" vertex="1" parent="1">
          <mxGeometry x="72.5" y="1300" width="100" height="20" as="geometry" />
        </mxCell>
        <mxCell id="tkM8fCFcSlWPYnc8_veN-244" value="&lt;div&gt;&lt;font style=&quot;font-size: 8px&quot;&gt;Upload picture of animal,&lt;/font&gt;&lt;/div&gt;&lt;div&gt;&lt;font style=&quot;font-size: 8px&quot;&gt;provide name, &lt;/font&gt;&lt;br&gt;&lt;/div&gt;&lt;div&gt;&lt;font style=&quot;font-size: 8px&quot;&gt;description &amp;amp; sound(s)&lt;/font&gt;&lt;br&gt;&lt;/div&gt;" style="text;html=1;align=center;verticalAlign=middle;resizable=0;points=[];autosize=1;" vertex="1" parent="1">
          <mxGeometry x="297.5" y="1300" width="110" height="50" as="geometry" />
        </mxCell>
        <mxCell id="tkM8fCFcSlWPYnc8_veN-245" value="" style="endArrow=classic;html=1;exitX=-0.064;exitY=1.017;exitDx=0;exitDy=0;exitPerimeter=0;" edge="1" parent="1" source="tkM8fCFcSlWPYnc8_veN-244">
          <mxGeometry width="50" height="50" relative="1" as="geometry">
            <mxPoint x="590" y="1370" as="sourcePoint" />
            <mxPoint x="530" y="1351" as="targetPoint" />
          </mxGeometry>
        </mxCell>
        <mxCell id="tkM8fCFcSlWPYnc8_veN-246" value="&lt;div&gt;&lt;font style=&quot;font-size: 8px&quot;&gt;Take user to interaction &lt;/font&gt;&lt;br&gt;&lt;/div&gt;&lt;div&gt;&lt;font style=&quot;font-size: 8px&quot;&gt;page for their new animal&lt;/font&gt;&lt;br&gt;&lt;/div&gt;" style="text;html=1;align=center;verticalAlign=middle;resizable=0;points=[];autosize=1;" vertex="1" parent="1">
          <mxGeometry x="405" y="1350" width="110" height="40" as="geometry" />
        </mxCell>
        <mxCell id="tkM8fCFcSlWPYnc8_veN-247" value="" style="html=1;labelBackgroundColor=#ffffff;startArrow=none;startFill=0;startSize=6;endArrow=classic;endFill=1;endSize=6;jettySize=auto;orthogonalLoop=1;strokeWidth=1;dashed=1;fontSize=14;" edge="1" parent="1">
          <mxGeometry width="60" height="60" relative="1" as="geometry">
            <mxPoint x="530" y="1390" as="sourcePoint" />
            <mxPoint x="170" y="1390" as="targetPoint" />
          </mxGeometry>
        </mxCell>
        <mxCell id="tkM8fCFcSlWPYnc8_veN-248" value="" style="html=1;labelBackgroundColor=#ffffff;startArrow=none;startFill=0;startSize=6;endArrow=classic;endFill=1;endSize=6;jettySize=auto;orthogonalLoop=1;strokeWidth=1;dashed=1;fontSize=14;" edge="1" parent="1">
          <mxGeometry width="60" height="60" relative="1" as="geometry">
            <mxPoint x="530" y="1290" as="sourcePoint" />
            <mxPoint x="170" y="1290" as="targetPoint" />
          </mxGeometry>
        </mxCell>
        <mxCell id="tkM8fCFcSlWPYnc8_veN-249" value="&lt;div&gt;&lt;font style=&quot;font-size: 8px&quot;&gt;provide share link for user &lt;/font&gt;&lt;br&gt;&lt;/div&gt;&lt;div&gt;&lt;font style=&quot;font-size: 8px&quot;&gt;to share&lt;/font&gt;&lt;br&gt;&lt;/div&gt;" style="text;html=1;align=center;verticalAlign=middle;resizable=0;points=[];autosize=1;" vertex="1" parent="1">
          <mxGeometry x="405" y="1470" width="110" height="40" as="geometry" />
        </mxCell>
        <mxCell id="tkM8fCFcSlWPYnc8_veN-250" value="" style="html=1;labelBackgroundColor=#ffffff;startArrow=none;startFill=0;startSize=6;endArrow=classic;endFill=1;endSize=6;jettySize=auto;orthogonalLoop=1;strokeWidth=1;dashed=1;fontSize=14;" edge="1" parent="1">
          <mxGeometry width="60" height="60" relative="1" as="geometry">
            <mxPoint x="530" y="1510" as="sourcePoint" />
            <mxPoint x="180" y="1510" as="targetPoint" />
          </mxGeometry>
        </mxCell>
        <mxCell id="tkM8fCFcSlWPYnc8_veN-251" value="" style="endArrow=none;dashed=1;html=1;" edge="1" parent="1">
          <mxGeometry width="50" height="50" relative="1" as="geometry">
            <mxPoint x="75" y="1521" as="sourcePoint" />
            <mxPoint x="533.56" y="1520.5" as="targetPoint" />
          </mxGeometry>
        </mxCell>
        <mxCell id="tkM8fCFcSlWPYnc8_veN-252" value="&lt;font style=&quot;font-size: 10px&quot;&gt;[If interact animal]&lt;/font&gt;" style="text;html=1;align=center;verticalAlign=middle;resizable=0;points=[];autosize=1;" vertex="1" parent="1">
          <mxGeometry x="70" y="1530" width="90" height="20" as="geometry" />
        </mxCell>
        <mxCell id="tkM8fCFcSlWPYnc8_veN-253" value="&lt;div&gt;&lt;font style=&quot;font-size: 8px&quot;&gt;Drag &amp;amp; drop &amp;amp; other&lt;/font&gt;&lt;/div&gt;&lt;div&gt;&lt;font style=&quot;font-size: 8px&quot;&gt;interaction functions&lt;/font&gt;&lt;br&gt;&lt;/div&gt;" style="text;html=1;align=center;verticalAlign=middle;resizable=0;points=[];autosize=1;" vertex="1" parent="1">
          <mxGeometry x="297.5" y="1520" width="90" height="40" as="geometry" />
        </mxCell>
        <mxCell id="tkM8fCFcSlWPYnc8_veN-254" value="" style="endArrow=classic;html=1;" edge="1" parent="1">
          <mxGeometry width="50" height="50" relative="1" as="geometry">
            <mxPoint x="290" y="1560" as="sourcePoint" />
            <mxPoint x="530" y="1560" as="targetPoint" />
          </mxGeometry>
        </mxCell>
        <mxCell id="tkM8fCFcSlWPYnc8_veN-255" value="&lt;div&gt;&lt;font style=&quot;font-size: 8px&quot;&gt;play audio/perform &lt;br&gt;&lt;/font&gt;&lt;/div&gt;&lt;div&gt;&lt;font style=&quot;font-size: 8px&quot;&gt;intended functions&lt;br&gt;&lt;/font&gt;&lt;/div&gt;" style="text;html=1;align=center;verticalAlign=middle;resizable=0;points=[];autosize=1;" vertex="1" parent="1">
          <mxGeometry x="425" y="1550" width="80" height="40" as="geometry" />
        </mxCell>
        <mxCell id="tkM8fCFcSlWPYnc8_veN-256" value="" style="html=1;labelBackgroundColor=#ffffff;startArrow=none;startFill=0;startSize=6;endArrow=classic;endFill=1;endSize=6;jettySize=auto;orthogonalLoop=1;strokeWidth=1;dashed=1;fontSize=14;" edge="1" parent="1">
          <mxGeometry width="60" height="60" relative="1" as="geometry">
            <mxPoint x="530" y="1590" as="sourcePoint" />
            <mxPoint x="180" y="1590" as="targetPoint" />
          </mxGeometry>
        </mxCell>
        <mxCell id="tkM8fCFcSlWPYnc8_veN-257" value="&lt;font style=&quot;font-size: 8px&quot;&gt;search animal(s)&lt;/font&gt;" style="text;html=1;align=center;verticalAlign=middle;resizable=0;points=[];autosize=1;" vertex="1" parent="1">
          <mxGeometry x="307.5" y="1630" width="80" height="20" as="geometry" />
        </mxCell>
        <mxCell id="tkM8fCFcSlWPYnc8_veN-258" value="" style="endArrow=classic;html=1;" edge="1" parent="1">
          <mxGeometry width="50" height="50" relative="1" as="geometry">
            <mxPoint x="290" y="1660" as="sourcePoint" />
            <mxPoint x="530" y="1660" as="targetPoint" />
          </mxGeometry>
        </mxCell>
        <mxCell id="tkM8fCFcSlWPYnc8_veN-259" value="&lt;div&gt;&lt;font style=&quot;font-size: 8px&quot;&gt;View/refer to animal&lt;/font&gt;&lt;/div&gt;&lt;div&gt;&lt;font style=&quot;font-size: 8px&quot;&gt;in restricted mode&lt;/font&gt;&lt;/div&gt;" style="text;html=1;align=center;verticalAlign=middle;resizable=0;points=[];autosize=1;" vertex="1" parent="1">
          <mxGeometry x="430" y="1680" width="90" height="40" as="geometry" />
        </mxCell>
        <mxCell id="tkM8fCFcSlWPYnc8_veN-260" value="" style="html=1;labelBackgroundColor=#ffffff;startArrow=none;startFill=0;startSize=6;endArrow=classic;endFill=1;endSize=6;jettySize=auto;orthogonalLoop=1;strokeWidth=1;dashed=1;fontSize=14;" edge="1" parent="1">
          <mxGeometry width="60" height="60" relative="1" as="geometry">
            <mxPoint x="530" y="1730" as="sourcePoint" />
            <mxPoint x="170" y="1730" as="targetPoint" />
          </mxGeometry>
        </mxCell>
        <mxCell id="tkM8fCFcSlWPYnc8_veN-261" value="" style="endArrow=none;html=1;entryX=-0.008;entryY=0.118;entryDx=0;entryDy=0;entryPerimeter=0;" edge="1" parent="1" target="tkM8fCFcSlWPYnc8_veN-161">
          <mxGeometry width="50" height="50" relative="1" as="geometry">
            <mxPoint x="515" y="1641" as="sourcePoint" />
            <mxPoint x="690" y="1390" as="targetPoint" />
          </mxGeometry>
        </mxCell>
        <mxCell id="tkM8fCFcSlWPYnc8_veN-262" value="" style="endArrow=none;dashed=1;html=1;" edge="1" parent="1" target="tkM8fCFcSlWPYnc8_veN-161">
          <mxGeometry width="50" height="50" relative="1" as="geometry">
            <mxPoint x="534.5" y="120" as="sourcePoint" />
            <mxPoint x="535" y="1970" as="targetPoint" />
          </mxGeometry>
        </mxCell>
        <mxCell id="tkM8fCFcSlWPYnc8_veN-263" value="" style="endArrow=none;dashed=1;html=1;exitX=0.5;exitY=1;exitDx=0;exitDy=0;entryX=0.5;entryY=0;entryDx=0;entryDy=0;" edge="1" parent="1" source="tkM8fCFcSlWPYnc8_veN-161" target="tkM8fCFcSlWPYnc8_veN-161">
          <mxGeometry width="50" height="50" relative="1" as="geometry">
            <mxPoint x="540" y="1810" as="sourcePoint" />
            <mxPoint x="590" y="1290" as="targetPoint" />
          </mxGeometry>
        </mxCell>
        <mxCell id="tkM8fCFcSlWPYnc8_veN-264" value="Alternative" style="rounded=0;whiteSpace=wrap;html=1;" vertex="1" parent="1">
          <mxGeometry x="62.5" y="1890" width="60" height="30" as="geometry" />
        </mxCell>
        <mxCell id="tkM8fCFcSlWPYnc8_veN-265" value="" style="endArrow=none;dashed=1;html=1;entryX=0;entryY=0.5;entryDx=0;entryDy=0;exitX=1;exitY=0.5;exitDx=0;exitDy=0;" edge="1" parent="1" source="tkM8fCFcSlWPYnc8_veN-157" target="tkM8fCFcSlWPYnc8_veN-157">
          <mxGeometry width="50" height="50" relative="1" as="geometry">
            <mxPoint x="32.5" y="2120" as="sourcePoint" />
            <mxPoint x="82.5" y="2070" as="targetPoint" />
          </mxGeometry>
        </mxCell>
        <mxCell id="tkM8fCFcSlWPYnc8_veN-266" value="" style="html=1;labelBackgroundColor=#ffffff;startArrow=none;startFill=0;startSize=6;endArrow=classic;endFill=1;endSize=6;jettySize=auto;orthogonalLoop=1;strokeWidth=1;dashed=1;fontSize=14;" edge="1" parent="1">
          <mxGeometry width="60" height="60" relative="1" as="geometry">
            <mxPoint x="530" y="1940" as="sourcePoint" />
            <mxPoint x="180" y="1940" as="targetPoint" />
          </mxGeometry>
        </mxCell>
        <mxCell id="tkM8fCFcSlWPYnc8_veN-267" value="&lt;div&gt;&lt;font style=&quot;font-size: 8px&quot;&gt;prompt user&lt;/font&gt;&lt;/div&gt;&lt;div&gt;&lt;font style=&quot;font-size: 8px&quot;&gt;to perform an action&lt;/font&gt;&lt;br&gt;&lt;/div&gt;" style="text;html=1;align=center;verticalAlign=middle;resizable=0;points=[];autosize=1;" vertex="1" parent="1">
          <mxGeometry x="305" y="1895" width="90" height="40" as="geometry" />
        </mxCell>
        <mxCell id="tkM8fCFcSlWPYnc8_veN-268" value="[If registered]" style="text;html=1;align=center;verticalAlign=middle;resizable=0;points=[];autosize=1;" vertex="1" parent="1">
          <mxGeometry x="67.5" y="1920" width="90" height="20" as="geometry" />
        </mxCell>
        <mxCell id="tkM8fCFcSlWPYnc8_veN-269" value="[If Guest]" style="text;html=1;align=center;verticalAlign=middle;resizable=0;points=[];autosize=1;" vertex="1" parent="1">
          <mxGeometry x="80" y="2025" width="60" height="20" as="geometry" />
        </mxCell>
        <mxCell id="tkM8fCFcSlWPYnc8_veN-270" value="" style="html=1;labelBackgroundColor=#ffffff;startArrow=none;startFill=0;startSize=6;endArrow=classic;endFill=1;endSize=6;jettySize=auto;orthogonalLoop=1;strokeWidth=1;dashed=1;fontSize=14;" edge="1" parent="1">
          <mxGeometry width="60" height="60" relative="1" as="geometry">
            <mxPoint x="530" y="2030" as="sourcePoint" />
            <mxPoint x="170" y="2030" as="targetPoint" />
            <Array as="points" />
          </mxGeometry>
        </mxCell>
        <mxCell id="tkM8fCFcSlWPYnc8_veN-271" value="&lt;font style=&quot;font-size: 8px&quot;&gt;&lt;b&gt;Boot&lt;/b&gt;&lt;/font&gt;" style="text;html=1;align=center;verticalAlign=middle;resizable=0;points=[];autosize=1;" vertex="1" parent="1">
          <mxGeometry x="335" y="2010" width="30" height="20" as="geometry" />
        </mxCell>
        <mxCell id="tkM8fCFcSlWPYnc8_veN-272" value="&lt;div&gt;User inactive&lt;/div&gt;&lt;div&gt;for 10 minutes&lt;br&gt;&lt;/div&gt;" style="text;html=1;align=center;verticalAlign=middle;resizable=0;points=[];autosize=1;" vertex="1" parent="1">
          <mxGeometry x="185" y="1820" width="90" height="30" as="geometry" />
        </mxCell>
        <mxCell id="tkM8fCFcSlWPYnc8_veN-273" value="" style="endArrow=classic;html=1;" edge="1" parent="1">
          <mxGeometry width="50" height="50" relative="1" as="geometry">
            <mxPoint x="170" y="1870" as="sourcePoint" />
            <mxPoint x="290" y="1870" as="targetPoint" />
          </mxGeometry>
        </mxCell>
        <mxCell id="tkM8fCFcSlWPYnc8_veN-274" value="&lt;div&gt;User inactive &lt;br&gt;&lt;/div&gt;&lt;div&gt;for 15 Minutes&lt;br&gt;&lt;/div&gt;" style="text;html=1;align=center;verticalAlign=middle;resizable=0;points=[];autosize=1;" vertex="1" parent="1">
          <mxGeometry x="180" y="2110" width="90" height="30" as="geometry" />
        </mxCell>
        <mxCell id="tkM8fCFcSlWPYnc8_veN-275" value="" style="endArrow=classic;html=1;" edge="1" parent="1">
          <mxGeometry width="50" height="50" relative="1" as="geometry">
            <mxPoint x="170" y="2150" as="sourcePoint" />
            <mxPoint x="290" y="2150" as="targetPoint" />
          </mxGeometry>
        </mxCell>
        <mxCell id="tkM8fCFcSlWPYnc8_veN-276" value="Alternative" style="rounded=0;whiteSpace=wrap;html=1;" vertex="1" parent="1">
          <mxGeometry x="62.5" y="2170" width="60" height="30" as="geometry" />
        </mxCell>
        <mxCell id="tkM8fCFcSlWPYnc8_veN-277" value="" style="html=1;labelBackgroundColor=#ffffff;startArrow=none;startFill=0;startSize=6;endArrow=classic;endFill=1;endSize=6;jettySize=auto;orthogonalLoop=1;strokeWidth=1;dashed=1;fontSize=14;" edge="1" parent="1">
          <mxGeometry width="60" height="60" relative="1" as="geometry">
            <mxPoint x="530" y="2220" as="sourcePoint" />
            <mxPoint x="180" y="2220" as="targetPoint" />
          </mxGeometry>
        </mxCell>
        <mxCell id="tkM8fCFcSlWPYnc8_veN-278" value="[If registered]" style="text;html=1;align=center;verticalAlign=middle;resizable=0;points=[];autosize=1;" vertex="1" parent="1">
          <mxGeometry x="67.5" y="2210" width="90" height="20" as="geometry" />
        </mxCell>
        <mxCell id="tkM8fCFcSlWPYnc8_veN-279" value="&lt;font style=&quot;font-size: 8px&quot;&gt;Secure auto sign-out&lt;br&gt;&lt;/font&gt;" style="text;html=1;align=center;verticalAlign=middle;resizable=0;points=[];autosize=1;" vertex="1" parent="1">
          <mxGeometry x="305" y="2190" width="90" height="20" as="geometry" />
        </mxCell>
        <mxCell id="tkM8fCFcSlWPYnc8_veN-280" value="" style="rounded=1;whiteSpace=wrap;html=1;shadow=0;glass=0;sketch=0;" vertex="1" parent="1">
          <mxGeometry x="520" y="2160" width="30" height="110" as="geometry" />
        </mxCell>
        <mxCell id="tkM8fCFcSlWPYnc8_veN-281" value="" style="rounded=1;whiteSpace=wrap;html=1;shadow=0;glass=0;sketch=0;" vertex="1" parent="1">
          <mxGeometry x="520" y="2350" width="30" height="420" as="geometry" />
        </mxCell>
        <mxCell id="tkM8fCFcSlWPYnc8_veN-282" value="" style="rounded=1;whiteSpace=wrap;html=1;shadow=0;glass=0;sketch=0;" vertex="1" parent="1">
          <mxGeometry x="270" y="2320" width="40" height="450" as="geometry" />
        </mxCell>
        <mxCell id="tkM8fCFcSlWPYnc8_veN-283" value="Alternative" style="rounded=0;whiteSpace=wrap;html=1;" vertex="1" parent="1">
          <mxGeometry x="62.5" y="2360" width="60" height="30" as="geometry" />
        </mxCell>
        <mxCell id="tkM8fCFcSlWPYnc8_veN-284" value="" style="endArrow=none;dashed=1;html=1;entryX=0;entryY=0.75;entryDx=0;entryDy=0;exitX=1;exitY=0.75;exitDx=0;exitDy=0;" edge="1" parent="1" source="tkM8fCFcSlWPYnc8_veN-153" target="tkM8fCFcSlWPYnc8_veN-153">
          <mxGeometry width="50" height="50" relative="1" as="geometry">
            <mxPoint x="32.5" y="2590" as="sourcePoint" />
            <mxPoint x="82.5" y="2540" as="targetPoint" />
          </mxGeometry>
        </mxCell>
        <mxCell id="tkM8fCFcSlWPYnc8_veN-285" value="" style="html=1;labelBackgroundColor=#ffffff;startArrow=none;startFill=0;startSize=6;endArrow=classic;endFill=1;endSize=6;jettySize=auto;orthogonalLoop=1;strokeWidth=1;dashed=1;fontSize=14;entryX=0.025;entryY=-0.45;entryDx=0;entryDy=0;entryPerimeter=0;" edge="1" parent="1" target="tkM8fCFcSlWPYnc8_veN-298">
          <mxGeometry width="60" height="60" relative="1" as="geometry">
            <mxPoint x="530" y="2440" as="sourcePoint" />
            <mxPoint x="290" y="2440" as="targetPoint" />
          </mxGeometry>
        </mxCell>
        <mxCell id="tkM8fCFcSlWPYnc8_veN-286" value="&lt;div&gt;&lt;font style=&quot;font-size: 8px&quot;&gt;prompt user&lt;/font&gt;&lt;/div&gt;&lt;div&gt;&lt;font style=&quot;font-size: 8px&quot;&gt;to perform a retaining&lt;/font&gt;&lt;/div&gt;&lt;div&gt;&lt;font style=&quot;font-size: 8px&quot;&gt; action&lt;/font&gt;&lt;font style=&quot;font-size: 8px&quot;&gt; ie&lt;/font&gt;&lt;font style=&quot;font-size: 8px&quot;&gt; you forgot &lt;br&gt;&lt;/font&gt;&lt;/div&gt;&lt;div&gt;&lt;font style=&quot;font-size: 8px&quot;&gt;to feed or play &lt;/font&gt;&lt;br&gt;&lt;/div&gt;&lt;div&gt;&lt;font style=&quot;font-size: 8px&quot;&gt;with animal etc.&lt;/font&gt;&lt;br&gt;&lt;/div&gt;" style="text;html=1;align=center;verticalAlign=middle;resizable=0;points=[];autosize=1;" vertex="1" parent="1">
          <mxGeometry x="415" y="2360" width="90" height="80" as="geometry" />
        </mxCell>
        <mxCell id="tkM8fCFcSlWPYnc8_veN-287" value="[If registered]" style="text;html=1;align=center;verticalAlign=middle;resizable=0;points=[];autosize=1;" vertex="1" parent="1">
          <mxGeometry x="67.5" y="2390" width="90" height="20" as="geometry" />
        </mxCell>
        <mxCell id="tkM8fCFcSlWPYnc8_veN-288" value="[If Guest]" style="text;html=1;align=center;verticalAlign=middle;resizable=0;points=[];autosize=1;" vertex="1" parent="1">
          <mxGeometry x="82.5" y="2690" width="60" height="20" as="geometry" />
        </mxCell>
        <mxCell id="tkM8fCFcSlWPYnc8_veN-289" value="" style="html=1;labelBackgroundColor=#ffffff;startArrow=none;startFill=0;startSize=6;endArrow=classic;endFill=1;endSize=6;jettySize=auto;orthogonalLoop=1;strokeWidth=1;dashed=1;fontSize=14;" edge="1" parent="1">
          <mxGeometry width="60" height="60" relative="1" as="geometry">
            <mxPoint x="532.5" y="2730" as="sourcePoint" />
            <mxPoint x="172.5" y="2730" as="targetPoint" />
            <Array as="points" />
          </mxGeometry>
        </mxCell>
        <mxCell id="tkM8fCFcSlWPYnc8_veN-290" value="&lt;div&gt;&lt;font style=&quot;font-size: 8px&quot;&gt;&lt;b&gt;Terminate&lt;/b&gt;&lt;/font&gt;&lt;/div&gt;&lt;div&gt;&lt;font style=&quot;font-size: 8px&quot;&gt;&lt;b&gt;session&lt;br&gt;&lt;/b&gt;&lt;/font&gt;&lt;/div&gt;" style="text;html=1;align=center;verticalAlign=middle;resizable=0;points=[];autosize=1;" vertex="1" parent="1">
          <mxGeometry x="445" y="2670" width="50" height="40" as="geometry" />
        </mxCell>
        <mxCell id="tkM8fCFcSlWPYnc8_veN-291" value="" style="endArrow=classic;html=1;" edge="1" parent="1">
          <mxGeometry width="50" height="50" relative="1" as="geometry">
            <mxPoint x="170" y="2340" as="sourcePoint" />
            <mxPoint x="290" y="2340" as="targetPoint" />
          </mxGeometry>
        </mxCell>
        <mxCell id="tkM8fCFcSlWPYnc8_veN-292" value="User selects sign-out" style="text;html=1;align=center;verticalAlign=middle;resizable=0;points=[];autosize=1;" vertex="1" parent="1">
          <mxGeometry x="165" y="2300" width="130" height="20" as="geometry" />
        </mxCell>
        <mxCell id="tkM8fCFcSlWPYnc8_veN-293" value="" style="endArrow=none;dashed=1;html=1;" edge="1" parent="1">
          <mxGeometry width="50" height="50" relative="1" as="geometry">
            <mxPoint x="288" y="120" as="sourcePoint" />
            <mxPoint x="290" y="2770" as="targetPoint" />
          </mxGeometry>
        </mxCell>
        <mxCell id="tkM8fCFcSlWPYnc8_veN-294" value="" style="endArrow=none;dashed=1;html=1;" edge="1" parent="1" source="tkM8fCFcSlWPYnc8_veN-161">
          <mxGeometry width="50" height="50" relative="1" as="geometry">
            <mxPoint x="534.5" y="120" as="sourcePoint" />
            <mxPoint x="535" y="2770" as="targetPoint" />
          </mxGeometry>
        </mxCell>
        <mxCell id="tkM8fCFcSlWPYnc8_veN-295" value="Alternative" style="rounded=0;whiteSpace=wrap;html=1;" vertex="1" parent="1">
          <mxGeometry x="72.5" y="2490" width="60" height="30" as="geometry" />
        </mxCell>
        <mxCell id="tkM8fCFcSlWPYnc8_veN-296" value="&lt;br&gt;&lt;div&gt;&lt;font style=&quot;font-size: 10px&quot;&gt;[If proceed to&lt;/font&gt;&lt;/div&gt;&lt;div&gt;&lt;font style=&quot;font-size: 10px&quot;&gt;sign-out]&lt;/font&gt;&lt;br&gt;&lt;/div&gt;" style="text;html=1;align=center;verticalAlign=middle;resizable=0;points=[];autosize=1;" vertex="1" parent="1">
          <mxGeometry x="80" y="2500" width="70" height="50" as="geometry" />
        </mxCell>
        <mxCell id="tkM8fCFcSlWPYnc8_veN-297" value="" style="endArrow=classic;html=1;" edge="1" parent="1">
          <mxGeometry width="50" height="50" relative="1" as="geometry">
            <mxPoint x="170" y="2470" as="sourcePoint" />
            <mxPoint x="410" y="2470" as="targetPoint" />
          </mxGeometry>
        </mxCell>
        <mxCell id="tkM8fCFcSlWPYnc8_veN-298" value="&lt;font style=&quot;font-size: 8px&quot;&gt;User selects option(s)&lt;/font&gt;" style="text;html=1;align=center;verticalAlign=middle;resizable=0;points=[];autosize=1;" vertex="1" parent="1">
          <mxGeometry x="167.5" y="2450" width="100" height="20" as="geometry" />
        </mxCell>
        <mxCell id="tkM8fCFcSlWPYnc8_veN-299" value="" style="endArrow=none;dashed=1;html=1;exitX=0;exitY=0.5;exitDx=0;exitDy=0;entryX=1;entryY=0.5;entryDx=0;entryDy=0;" edge="1" parent="1" source="tkM8fCFcSlWPYnc8_veN-154" target="tkM8fCFcSlWPYnc8_veN-154">
          <mxGeometry width="50" height="50" relative="1" as="geometry">
            <mxPoint x="650" y="2600" as="sourcePoint" />
            <mxPoint x="700" y="2550" as="targetPoint" />
          </mxGeometry>
        </mxCell>
        <mxCell id="tkM8fCFcSlWPYnc8_veN-300" value="" style="html=1;labelBackgroundColor=#ffffff;startArrow=none;startFill=0;startSize=6;endArrow=classic;endFill=1;endSize=6;jettySize=auto;orthogonalLoop=1;strokeWidth=1;dashed=1;fontSize=14;" edge="1" parent="1">
          <mxGeometry width="60" height="60" relative="1" as="geometry">
            <mxPoint x="530" y="2550" as="sourcePoint" />
            <mxPoint x="180" y="2550" as="targetPoint" />
          </mxGeometry>
        </mxCell>
        <mxCell id="tkM8fCFcSlWPYnc8_veN-301" value="&lt;div&gt;&lt;font style=&quot;font-size: 8px&quot;&gt;Secure successful &lt;/font&gt;&lt;br&gt;&lt;/div&gt;&lt;div&gt;&lt;font style=&quot;font-size: 8px&quot;&gt;sign-out&lt;/font&gt;&lt;br&gt;&lt;/div&gt;" style="text;html=1;align=center;verticalAlign=middle;resizable=0;points=[];autosize=1;" vertex="1" parent="1">
          <mxGeometry x="420" y="2500" width="80" height="40" as="geometry" />
        </mxCell>
        <mxCell id="tkM8fCFcSlWPYnc8_veN-302" value="&lt;div&gt;&lt;font style=&quot;font-size: 10px&quot;&gt;[If option(s)&lt;/font&gt;&lt;/div&gt;&lt;div&gt;&lt;font style=&quot;font-size: 10px&quot;&gt;selected]&lt;/font&gt;&lt;br&gt;&lt;/div&gt;" style="text;html=1;align=center;verticalAlign=middle;resizable=0;points=[];autosize=1;" vertex="1" parent="1">
          <mxGeometry x="87.5" y="2580" width="60" height="30" as="geometry" />
        </mxCell>
        <mxCell id="tkM8fCFcSlWPYnc8_veN-303" value="" style="html=1;labelBackgroundColor=#ffffff;startArrow=none;startFill=0;startSize=6;endArrow=classic;endFill=1;endSize=6;jettySize=auto;orthogonalLoop=1;strokeWidth=1;dashed=1;fontSize=14;" edge="1" parent="1">
          <mxGeometry width="60" height="60" relative="1" as="geometry">
            <mxPoint x="530" y="2620" as="sourcePoint" />
            <mxPoint x="300" y="2620" as="targetPoint" />
          </mxGeometry>
        </mxCell>
        <mxCell id="tkM8fCFcSlWPYnc8_veN-304" value="&lt;div&gt;&lt;font style=&quot;font-size: 8px&quot;&gt;Take user to &lt;/font&gt;&lt;br&gt;&lt;/div&gt;&lt;div&gt;&lt;font style=&quot;font-size: 8px&quot;&gt;home screen&lt;/font&gt;&lt;br&gt;&lt;/div&gt;" style="text;html=1;align=center;verticalAlign=middle;resizable=0;points=[];autosize=1;" vertex="1" parent="1">
          <mxGeometry x="435" y="2570" width="60" height="40" as="geometry" />
        </mxCell>
      </root>
    </mxGraphModel>
  </diagram>
</mxfile>
